<svg xmlns="http://www.w3.org/2000/svg" viewBox="0 0 130 164.67"><defs>
</defs><title>Asset 2</title><g id="Layer_2" data-name="Layer 2"><g id="Layer_1-2" data-name="Layer 1"><circle fill="#4b5b86" class="cls-1" cx="65.17" cy="100.34" r="3.52"/><circle fill="#4b5b86" class="cls-1" cx="73.59" cy="100.34" r="3.52"/><circle fill="#4b5b86" class="cls-1" cx="69.18" cy="93.31" r="3.52"/><circle fill="#4b5b86" class="cls-1" cx="56.77" cy="100.34" r="3.52"/><circle fill="#4b5b86" class="cls-1" cx="60.77" cy="93.31" r="3.52"/><circle fill="#4b5b86" class="cls-1" cx="65.17" cy="86.28" r="3.52"/><circle  fill="#4b5b86" class="cls-1" cx="73.58" cy="86.28" r="3.52"/><circle fill="#4b5b86" class="cls-1" cx="56.76" cy="86.28" r="3.52"/><path fill="#4b5b86" class="cls-1" d="M84.41,47.32c-.3-6.51-4.69-12.09-11-14.79l2.78-13.88-5.12-1L68.42,31.08A22,22,0,0,0,65,30.8c-10.48,0-19,7.33-19.45,16.52H42.84v2.61h2.74l4.62,57H79.83l4.62-57,2.71,0V47.32ZM73,34.88a16.19,16.19,0,0,1,8.78,12.43H70.5Zm-8-1.93a17.74,17.74,0,0,1,3,.26l-2.82,14.1h-17C49.1,39.23,56.27,32.95,65,32.95Zm-16.91,17h16.6l-1.84,9.21c-4.54-2-10.93-.24-14,1.3ZM78,104.4H52.27L49.16,63c1.38-.86,8.46-3.39,11.72-1.74.39.2,3.21,1.75,3.21,1.75l3,2c5.16,3.11,11,2.23,13.72,1.54Zm2.88-40.21a21.46,21.46,0,0,1-4.78.61,14.41,14.41,0,0,1-8.61-2.4L70,49.93h12Z"/><path fill="#4b5b86" class="cls-1" d="M65,0a65,65,0,1,0,65,65A65,65,0,0,0,65,0Zm0,119.25A54.25,54.25,0,1,1,119.25,65,54.25,54.25,0,0,1,65,119.25Z"/><polygon fill="#4b5b86" class="cls-1" points="63.77 164.67 63.77 164.67 35.22 119.17 95.12 119.17 63.77 164.67"/></g></g></svg>