<svg xmlns="http://www.w3.org/2000/svg" viewBox="0 0 127.25 256.34"><defs><style>.cls-1{fill:#4b5b86;}</style></defs><title>Asset 1</title><g id="Layer_2" data-name="Layer 2"><g id="Layer_1-2" data-name="Layer 1"><circle class="cls-1" cx="64.12" cy="237.47" r="10.09"/><circle class="cls-1" cx="88.29" cy="237.47" r="10.09"/><circle class="cls-1" cx="75.62" cy="217.28" r="10.09"/><circle class="cls-1" cx="39.99" cy="237.47" r="10.09"/><circle class="cls-1" cx="51.49" cy="217.28" r="10.09"/><circle class="cls-1" cx="64.1" cy="197.1" r="10.09"/><circle class="cls-1" cx="88.27" cy="197.1" r="10.09"/><circle class="cls-1" cx="39.97" cy="197.1" r="10.09"/><path class="cls-1" d="M119.36,85.25c-.87-18.7-13.46-34.72-31.44-42.46l8-39.85L81.18,0,73.46,38.63a63.22,63.22,0,0,0-9.94-.8c-30.08,0-54.6,21-55.84,47.42H0v7.5H7.86L21.13,256.34h85.06L119.46,92.64l7.79.11v-7.5ZM86.57,49.55a46.49,46.49,0,0,1,25.22,35.7H79.43ZM63.53,44a50.94,50.94,0,0,1,8.7.76l-8.1,40.49H15.29C18,62,38.55,44,63.53,44ZM15,92.79H15v0H62.63l-5.29,26.44c-13-5.85-31.39-.69-40.1,3.75Zm85.94,156.33H27.08L18.16,130.23c4-2.46,24.3-9.73,33.65-5,1.13.57,9.2,5,9.2,5l8.7,5.61c14.81,8.92,31.55,6.41,39.39,4.43Zm8.28-115.44a61.62,61.62,0,0,1-13.71,1.76c-11.75.08-19.06-3.11-24.73-6.88l7.16-35.81H112v0h.24Z"/></g></g></svg>